/* XPM */
static char * player_sho_u_xpm[] = {
"40 40 83 1",
" 	c #0E3B5E",
".	c #2F515B",
"+	c #758056",
"@	c #294D5B",
"#	c #2B4F5B",
"$	c #143F5D",
"%	c #9A9952",
"&	c #F9D94B",
"*	c #FCDB4B",
"=	c #415D5A",
"-	c #B9AE50",
";	c #F7D84B",
">	c #8F9253",
",	c #133E5D",
"'	c #254A5C",
")	c #C9B94F",
"!	c #FDDC4B",
"~	c #BFB250",
"{	c #5B6F58",
"]	c #C3B54F",
"^	c #244A5C",
"/	c #1A435D",
"(	c #CFBD4E",
"_	c #4B6459",
":	c #E9CF4C",
"<	c #15405D",
"[	c #A7A251",
"}	c #C9B84F",
"|	c #A29E52",
"1	c #999853",
"2	c #3B595A",
"3	c #FBDB4B",
"4	c #576C58",
"5	c #496359",
"6	c #FADA4B",
"7	c #36555A",
"8	c #B3AA51",
"9	c #D5BC4D",
"0	c #847B51",
"a	c #7C7451",
"b	c #B5A24F",
"c	c #D3BF4E",
"d	c #103C5D",
"e	c #123D5D",
"f	c #DAC44D",
"g	c #B1A951",
"h	c #18425D",
"i	c #F7D74B",
"j	c #5E5C53",
"k	c #545454",
"l	c #CAB34D",
"m	c #637457",
"n	c #8A8F54",
"o	c #556B58",
"p	c #E8CB4C",
"q	c #A6964F",
"r	c #E3CA4D",
"s	c #7D8655",
"t	c #F5D54B",
"u	c #595853",
"v	c #C0AB4E",
"w	c #8A8E54",
"x	c #696553",
"y	c #A09150",
"z	c #B2AA51",
"A	c #35555A",
"B	c #A8A351",
"C	c #CCBB4E",
"D	c #C8B94F",
"E	c #C4B64F",
"F	c #264B5C",
"G	c #ABA451",
"H	c #EFD34C",
"I	c #F3D54B",
"J	c #A39F52",
"K	c #133F5D",
"L	c #516858",
"M	c #7E8655",
"N	c #888D54",
"O	c #878C54",
"P	c #788355",
"Q	c #5A6E58",
"R	c #19425D",
"                                        ",
"                                        ",
"                                        ",
"                                        ",
"                                        ",
"                                        ",
"                                        ",
"                                        ",
"                                        ",
"              .+        @#              ",
"            $%&*=       -;>,            ",
"           ')!!!~      {!!!]^           ",
"          /(!!!!!_    /:!!!!)<          ",
"          [!!!!!!}    |!!!!!!1          ",
"         23!!!!!!!4  5*!!!!!!67         ",
"         8!90ab!!!cdef!!!!!!!!g         ",
"        h;ijkkkl!!!mn!!!!!!!!!;h        ",
"        o!pkkkkq!!!r6!!!!!!!!!!o        ",
"        s!tukkkv!!!!!!!!!!!!!!!s        ",
"        w!!lxjy!!!!!!!!!!!!!!!!w        ",
"        w!!!!!!!!!!!!!!!!!!!!!!w        ",
"        s!!!!!!!!!!!!!!!!!!!!!!s        ",
"        o!!!!!!!!!!!!!!!!!!!!!!o        ",
"        h;!!!!!!!!!!!!!!!!!!!!;h        ",
"         z!!!!!!!!!!!!!!!!!!!!g         ",
"         23!!!!!!!!!!!!!!!!!!6A         ",
"          B!!!!!!!!!!!!!!!!!!%          ",
"          /(!!!!!!!!!!!!!!!!C<          ",
"           'D!!!!!!!!!!!!!!EF           ",
"            $%&!!!!!!!!!!;>,            ",
"              AGH!!!!!!IJ#              ",
"                KLMNOPQR                ",
"                                        ",
"                                        ",
"                                        ",
"                                        ",
"                                        ",
"                                        ",
"                                        ",
"                                        "};
