/* XPM */
static char * player_rightxpm_xpm[] = {
"40 40 90 1",
" 	c #0E3B5E",
".	c #18425D",
"+	c #556B58",
"@	c #7D8655",
"#	c #8A8E54",
"$	c #3B595A",
"%	c #B2AA51",
"&	c #F7D84B",
"*	c #FDDC4B",
"=	c #B3AA51",
"-	c #1A435D",
";	c #A8A351",
">	c #FBDB4B",
",	c #F5D54B",
"'	c #E8CB4C",
")	c #F7D74B",
"!	c #A7A251",
"~	c #254A5C",
"{	c #CFBD4E",
"]	c #CAB34D",
"^	c #595853",
"/	c #545454",
"(	c #5E5C53",
"_	c #D5BC4D",
":	c #143F5D",
"<	c #C8B94F",
"[	c #696553",
"}	c #847B51",
"|	c #C9B94F",
"1	c #9A9952",
"2	c #7C7451",
"3	c #FBDA4B",
"4	c #647557",
"5	c #35555A",
"6	c #F9D94B",
"7	c #A09150",
"8	c #B5A24F",
"9	c #FCDB4B",
"0	c #B4AA50",
"a	c #37565A",
"b	c #ABA451",
"c	c #C0AB4E",
"d	c #A6964F",
"e	c #BFB250",
"f	c #415D5A",
"g	c #133F5D",
"h	c #EFD34C",
"i	c #CBBA4F",
"j	c #4D6559",
"k	c #516858",
"l	c #D5C14E",
"m	c #596E58",
"n	c #7E8655",
"o	c #DEC74D",
"p	c #657557",
"q	c #103C5D",
"r	c #888D54",
"s	c #E9CE4C",
"t	c #707D56",
"u	c #133E5D",
"v	c #878C54",
"w	c #EFD24C",
"x	c #788355",
"y	c #BEB150",
"z	c #31525B",
"A	c #5A6E58",
"B	c #F8D94B",
"C	c #808855",
"D	c #0F3B5E",
"E	c #19425D",
"F	c #F3D54B",
"G	c #D2BF4E",
"H	c #3F5C5A",
"I	c #A39F52",
"J	c #959653",
"K	c #2B4F5B",
"L	c #E0C84D",
"M	c #4F6658",
"N	c #8F9253",
"O	c #1E465C",
"P	c #C4B64F",
"Q	c #B5AC50",
"R	c #264B5C",
"S	c #CCBB4E",
"T	c #244A5C",
"U	c #15405D",
"V	c #FADA4B",
"W	c #999853",
"X	c #B1A951",
"Y	c #36555A",
"                                        ",
"                                        ",
"                                        ",
"                                        ",
"                                        ",
"                                        ",
"                                        ",
"                                        ",
"                .+@##@+.                ",
"              $%&******&=$              ",
"            -;>******,')*>!-            ",
"           ~{*******]^/(_**{~           ",
"          :<********[///}***|:          ",
"          1*********(///2***34          ",
"         56*********7///8*90a           ",
"         b***********cd]*ef             ",
"        gh*************ij               ",
"        k************lm                 ",
"        n**********opq                  ",
"        r********stu                    ",
"        v********w4                     ",
"        x**********yz                   ",
"        A***********BCD                 ",
"        EF************GH                ",
"         I*************>J:              ",
"         K&**************LM             ",
"          N***************9;O           ",
"          uP****************Q           ",
"           RS**************|T           ",
"            U1V**********VWU            ",
"              5X&******&XY              ",
"                .+@##@+.                ",
"                                        ",
"                                        ",
"                                        ",
"                                        ",
"                                        ",
"                                        ",
"                                        ",
"                                        "};
