/* XPM */
static char * player_lefth_xpm[] = {
"40 40 90 1",
" 	c #0E3B5E",
".	c #18425D",
"+	c #556B58",
"@	c #7D8655",
"#	c #8A8E54",
"$	c #3B595A",
"%	c #B3AA51",
"&	c #F7D84B",
"*	c #FDDC4B",
"=	c #B2AA51",
"-	c #1A435D",
";	c #A7A251",
">	c #FBDB4B",
",	c #F7D74B",
"'	c #E8CB4C",
")	c #F5D54B",
"!	c #A8A351",
"~	c #254A5C",
"{	c #CFBD4E",
"]	c #D5BC4D",
"^	c #5E5C53",
"/	c #545454",
"(	c #595853",
"_	c #CAB34D",
":	c #143F5D",
"<	c #C9B94F",
"[	c #847B51",
"}	c #696553",
"|	c #C8B94F",
"1	c #647557",
"2	c #FBDA4B",
"3	c #7C7451",
"4	c #9A9952",
"5	c #37565A",
"6	c #B4AA50",
"7	c #FCDB4B",
"8	c #B5A24F",
"9	c #A09150",
"0	c #F9D94B",
"a	c #35555A",
"b	c #415D5A",
"c	c #BFB250",
"d	c #A6964F",
"e	c #C0AB4E",
"f	c #ABA451",
"g	c #4D6559",
"h	c #CBBA4F",
"i	c #EFD34C",
"j	c #133F5D",
"k	c #596E58",
"l	c #D5C14E",
"m	c #516858",
"n	c #103C5D",
"o	c #657557",
"p	c #DEC74D",
"q	c #7E8655",
"r	c #133E5D",
"s	c #707D56",
"t	c #E9CE4C",
"u	c #888D54",
"v	c #EFD24C",
"w	c #878C54",
"x	c #31525B",
"y	c #BEB150",
"z	c #788355",
"A	c #0F3B5E",
"B	c #808855",
"C	c #F8D94B",
"D	c #5A6E58",
"E	c #3F5C5A",
"F	c #D2BF4E",
"G	c #F3D54B",
"H	c #19425D",
"I	c #959653",
"J	c #A39F52",
"K	c #4F6658",
"L	c #E0C84D",
"M	c #2B4F5B",
"N	c #1E465C",
"O	c #8F9253",
"P	c #B5AC50",
"Q	c #C4B64F",
"R	c #244A5C",
"S	c #CCBB4E",
"T	c #264B5C",
"U	c #15405D",
"V	c #999853",
"W	c #FADA4B",
"X	c #36555A",
"Y	c #B1A951",
"                                        ",
"                                        ",
"                                        ",
"                                        ",
"                                        ",
"                                        ",
"                                        ",
"                                        ",
"                .+@##@+.                ",
"              $%&******&=$              ",
"            -;>*,')******>!-            ",
"           ~{**]^/(_*******{~           ",
"          :<***[///}********|:          ",
"          12***3///^*********4          ",
"           567*8///9*********0a         ",
"             bc*_de***********f         ",
"               gh*************ij        ",
"                 kl************m        ",
"                  nop**********q        ",
"                    rst********u        ",
"                     1v********w        ",
"                   xy**********z        ",
"                 ABC***********D        ",
"                EF************GH        ",
"              :I>*************J         ",
"             KL**************&M         ",
"           N!7***************O          ",
"           P****************Qr          ",
"           R<**************ST           ",
"            UVW**********W4U            ",
"              XY&******&Ya              ",
"                .+@##@+.                ",
"                                        ",
"                                        ",
"                                        ",
"                                        ",
"                                        ",
"                                        ",
"                                        ",
"                                        "};
