/* XPM */
static char * Design sem nome (7)_xpm[] = {
"40 40 83 1",
" 	c #0E3B5E",
".	c #18425D",
"+	c #556B58",
"@	c #7D8655",
"#	c #8A8E54",
"$	c #3B595A",
"%	c #B2AA51",
"&	c #F7D84B",
"*	c #FDDC4B",
"=	c #B3AA51",
"-	c #1A435D",
";	c #A8A351",
">	c #FBDB4B",
",	c #F5D54B",
"'	c #E8CB4C",
")	c #F7D74B",
"!	c #A7A251",
"~	c #254A5C",
"{	c #CFBD4E",
"]	c #CAB34D",
"^	c #595853",
"/	c #545454",
"(	c #5E5C53",
"_	c #D5BC4D",
":	c #143F5D",
"<	c #C8B94F",
"[	c #696553",
"}	c #847B51",
"|	c #C9B94F",
"1	c #9A9952",
"2	c #7C7451",
"3	c #35555A",
"4	c #F9D94B",
"5	c #A09150",
"6	c #B5A24F",
"7	c #2F515B",
"8	c #ABA451",
"9	c #C0AB4E",
"0	c #A6964F",
"a	c #FCDB4B",
"b	c #758056",
"c	c #133F5D",
"d	c #EFD34C",
"e	c #BFB250",
"f	c #415D5A",
"g	c #516858",
"h	c #C9B84F",
"i	c #4B6459",
"j	c #7E8655",
"k	c #D3BF4E",
"l	c #576C58",
"m	c #888D54",
"n	c #E3CA4D",
"o	c #637457",
"p	c #103C5D",
"q	c #878C54",
"r	c #FADA4B",
"s	c #8A8F54",
"t	c #123D5D",
"u	c #788355",
"v	c #DAC44D",
"w	c #496359",
"x	c #5A6E58",
"y	c #A29E52",
"z	c #19425D",
"A	c #F3D54B",
"B	c #E9CF4C",
"C	c #5B6F58",
"D	c #A39F52",
"E	c #B9AE50",
"F	c #294D5B",
"G	c #2B4F5B",
"H	c #8F9253",
"I	c #133E5D",
"J	c #C4B64F",
"K	c #C3B54F",
"L	c #264B5C",
"M	c #CCBB4E",
"N	c #244A5C",
"O	c #15405D",
"P	c #999853",
"Q	c #B1A951",
"R	c #36555A",
"                                        ",
"                                        ",
"                                        ",
"                                        ",
"                                        ",
"                                        ",
"                                        ",
"                                        ",
"                .+@##@+.                ",
"              $%&******&=$              ",
"            -;>******,')*>!-            ",
"           ~{*******]^/(_**{~           ",
"          :<********[///}***|:          ",
"          1*********(///2****1          ",
"         34*********5///6****47         ",
"         8***********90]*****ab         ",
"        cd******************ef          ",
"        g*****************hi            ",
"        j***************kl              ",
"        m*************nop               ",
"        q*************rst               ",
"        u***************vw              ",
"        x****************ay-            ",
"        zA*****************BC           ",
"         D*******************EF         ",
"         G&******************&G         ",
"          H******************H          ",
"          IJ****************KI          ",
"           LM**************|N           ",
"            O1r**********rPO            ",
"              3Q&******&QR              ",
"                .+@##@+.                ",
"                                        ",
"                                        ",
"                                        ",
"                                        ",
"                                        ",
"                                        ",
"                                        ",
"                                        "};
