/* XPM */
static char * player_up_xpm[] = {
"40 40 90 1",
" 	c #0E3B5E",
".	c #143F5D",
"+	c #647557",
"@	c #254A5C",
"#	c #C9B94F",
"$	c #FBDA4B",
"%	c #37565A",
"&	c #1E465C",
"*	c #B5AC50",
"=	c #244A5C",
"-	c #1A435D",
";	c #CFBD4E",
">	c #FDDC4B",
",	c #B4AA50",
"'	c #A8A351",
")	c #15405D",
"!	c #A7A251",
"~	c #FCDB4B",
"{	c #415D5A",
"]	c #4F6658",
"^	c #999853",
"/	c #3B595A",
"(	c #FBDB4B",
"_	c #BFB250",
":	c #E0C84D",
"<	c #FADA4B",
"[	c #36555A",
"}	c #B3AA51",
"|	c #D5BC4D",
"1	c #847B51",
"2	c #7C7451",
"3	c #B5A24F",
"4	c #4D6559",
"5	c #959653",
"6	c #B1A951",
"7	c #18425D",
"8	c #F7D84B",
"9	c #F7D74B",
"0	c #5E5C53",
"a	c #545454",
"b	c #CAB34D",
"c	c #CBBA4F",
"d	c #3F5C5A",
"e	c #556B58",
"f	c #E8CB4C",
"g	c #A6964F",
"h	c #596E58",
"i	c #0F3B5E",
"j	c #D2BF4E",
"k	c #7D8655",
"l	c #F5D54B",
"m	c #595853",
"n	c #C0AB4E",
"o	c #D5C14E",
"p	c #103C5D",
"q	c #808855",
"r	c #8A8E54",
"s	c #696553",
"t	c #A09150",
"u	c #657557",
"v	c #31525B",
"w	c #F8D94B",
"x	c #DEC74D",
"y	c #133E5D",
"z	c #BEB150",
"A	c #707D56",
"B	c #E9CE4C",
"C	c #EFD24C",
"D	c #B2AA51",
"E	c #35555A",
"F	c #9A9952",
"G	c #CCBB4E",
"H	c #C8B94F",
"I	c #C4B64F",
"J	c #264B5C",
"K	c #F9D94B",
"L	c #8F9253",
"M	c #ABA451",
"N	c #EFD34C",
"O	c #F3D54B",
"P	c #A39F52",
"Q	c #2B4F5B",
"R	c #133F5D",
"S	c #516858",
"T	c #7E8655",
"U	c #888D54",
"V	c #878C54",
"W	c #788355",
"X	c #5A6E58",
"Y	c #19425D",
"                                        ",
"                                        ",
"                                        ",
"                                        ",
"                                        ",
"                                        ",
"                                        ",
"                                        ",
"                                        ",
"                                        ",
"            .+                          ",
"           @#$%           &*=           ",
"          -;>>,           '>#)          ",
"          !>>>~{         ]~>>^          ",
"         /(>>>>_        .:>>><[         ",
"         }>|123>4       5>>>>>6         ",
"        7890aaabc      d(>>>>>87        ",
"        e>faaaag>h    ij>>>>>>>e        ",
"        k>lmaaan>op   q>>>>>>>>k        ",
"        r>>bs0t>>>u  vw>>>>>>>>r        ",
"        r>>>>>>>>>xy z>>>>>>>>>r        ",
"        k>>>>>>>>>>A+>>>>>>>>>>k        ",
"        e>>>>>>>>>>BC>>>>>>>>>>e        ",
"        78>>>>>>>>>>>>>>>>>>>>87        ",
"         D>>>>>>>>>>>>>>>>>>>>6         ",
"         /(>>>>>>>>>>>>>>>>>><E         ",
"          '>>>>>>>>>>>>>>>>>>F          ",
"          -;>>>>>>>>>>>>>>>>G)          ",
"           @H>>>>>>>>>>>>>>IJ           ",
"            .FK>>>>>>>>>>8Ly            ",
"              EMN>>>>>>OPQ              ",
"                RSTUVWXY                ",
"                                        ",
"                                        ",
"                                        ",
"                                        ",
"                                        ",
"                                        ",
"                                        ",
"                                        "};
