/* XPM */
static char * player_down_xpm[] = {
"40 40 90 1",
" 	c #0E3B5E",
".	c #133F5D",
"+	c #516858",
"@	c #7E8655",
"#	c #888D54",
"$	c #878C54",
"%	c #788355",
"&	c #5A6E58",
"*	c #19425D",
"=	c #35555A",
"-	c #ABA451",
";	c #EFD34C",
">	c #FDDC4B",
",	c #F3D54B",
"'	c #A39F52",
")	c #2B4F5B",
"!	c #143F5D",
"~	c #9A9952",
"{	c #F9D94B",
"]	c #F7D84B",
"^	c #8F9253",
"/	c #133E5D",
"(	c #254A5C",
"_	c #C8B94F",
":	c #C4B64F",
"<	c #264B5C",
"[	c #1A435D",
"}	c #CFBD4E",
"|	c #CCBB4E",
"1	c #15405D",
"2	c #A8A351",
"3	c #3B595A",
"4	c #FBDB4B",
"5	c #FADA4B",
"6	c #B2AA51",
"7	c #B1A951",
"8	c #18425D",
"9	c #556B58",
"0	c #E9CE4C",
"a	c #EFD24C",
"b	c #7D8655",
"c	c #707D56",
"d	c #647557",
"e	c #8A8E54",
"f	c #DEC74D",
"g	c #BEB150",
"h	c #CAB34D",
"i	c #696553",
"j	c #5E5C53",
"k	c #A09150",
"l	c #657557",
"m	c #31525B",
"n	c #F8D94B",
"o	c #F5D54B",
"p	c #595853",
"q	c #545454",
"r	c #C0AB4E",
"s	c #D5C14E",
"t	c #103C5D",
"u	c #808855",
"v	c #E8CB4C",
"w	c #A6964F",
"x	c #596E58",
"y	c #0F3B5E",
"z	c #D2BF4E",
"A	c #F7D74B",
"B	c #CBBA4F",
"C	c #3F5C5A",
"D	c #B3AA51",
"E	c #D5BC4D",
"F	c #847B51",
"G	c #7C7451",
"H	c #B5A24F",
"I	c #4D6559",
"J	c #959653",
"K	c #BFB250",
"L	c #E0C84D",
"M	c #36555A",
"N	c #A7A251",
"O	c #FCDB4B",
"P	c #415D5A",
"Q	c #4F6658",
"R	c #999853",
"S	c #B4AA50",
"T	c #C9B94F",
"U	c #FBDA4B",
"V	c #37565A",
"W	c #1E465C",
"X	c #B5AC50",
"Y	c #244A5C",
"                                        ",
"                                        ",
"                                        ",
"                                        ",
"                                        ",
"                                        ",
"                                        ",
"                                        ",
"                .+@#$%&*                ",
"              =-;>>>>>>,')              ",
"            !~{>>>>>>>>>>]^/            ",
"           (_>>>>>>>>>>>>>>:<           ",
"          [}>>>>>>>>>>>>>>>>|1          ",
"          2>>>>>>>>>>>>>>>>>>~          ",
"         34>>>>>>>>>>>>>>>>>>5=         ",
"         6>>>>>>>>>>>>>>>>>>>>7         ",
"        8]>>>>>>>>>>>>>>>>>>>>]8        ",
"        9>>>>>>>>>>0a>>>>>>>>>>9        ",
"        b>>>>>>>>>>cd>>>>>>>>>>b        ",
"        e>>>>>>>>>f/ g>>>>>>>>>e        ",
"        e>>hijk>>>l  mn>>>>>>>>e        ",
"        b>opqqqr>st   u>>>>>>>>b        ",
"        9>vqqqqw>x    yz>>>>>>>9        ",
"        8]AjqqqhB      C4>>>>>]8        ",
"         D>EFGH>I       J>>>>>7         ",
"         34>>>>K        !L>>>5M         ",
"          N>>>OP         QO>>R          ",
"          [}>>S           2>T1          ",
"           (TUV           WXY           ",
"            !d                          ",
"                                        ",
"                                        ",
"                                        ",
"                                        ",
"                                        ",
"                                        ",
"                                        ",
"                                        ",
"                                        ",
"                                        "};
