/* XPM */
static char * coin_xpm[] = {
"40 40 12 1",
" 	c #0E3B5E",
".	c #22485D",
"+	c #596E5C",
"@	c #15405E",
"#	c #95965B",
"$	c #FEDD59",
"%	c #FFDE59",
"&	c #21485D",
"*	c #566C5C",
"=	c #536A5C",
"-	c #22495D",
";	c #5A6E5C",
"                                        ",
"                                        ",
"                                        ",
"                                        ",
"                                        ",
"                                        ",
"                                        ",
"                                        ",
"                                        ",
"                                        ",
"                                        ",
"                                        ",
"                                        ",
"                                        ",
"                                        ",
"                  .++.                  ",
"                @#$%%$#@                ",
"                #%%%%%%#                ",
"               &$%%%%%%$&               ",
"               *%%%%%%%%=               ",
"               *%%%%%%%%=               ",
"               &$%%%%%%$&               ",
"                #%%%%%%#                ",
"                @#$%%$#@                ",
"                  -;;-                  ",
"                                        ",
"                                        ",
"                                        ",
"                                        ",
"                                        ",
"                                        ",
"                                        ",
"                                        ",
"                                        ",
"                                        ",
"                                        ",
"                                        ",
"                                        ",
"                                        ",
"                                        "};
