/* XPM */
static char * enemi_blue_xpm[] = {
"40 40 227 2",
"  	c #0E3B5E",
". 	c #1A4A6D",
"+ 	c #366888",
"@ 	c #447C9C",
"# 	c #548FAF",
"$ 	c #5290B0",
"% 	c #5592B1",
"& 	c #4882A3",
"* 	c #407494",
"= 	c #265778",
"- 	c #103D60",
"; 	c #0F3D5F",
"> 	c #2A5D7E",
", 	c #68A6C5",
"' 	c #84D0EF",
") 	c #7AD2F4",
"! 	c #76D0F4",
"~ 	c #75D1F5",
"{ 	c #75D0F4",
"] 	c #78D1F5",
"^ 	c #83D3F2",
"/ 	c #79BDDB",
"( 	c #417898",
"_ 	c #144265",
": 	c #1C4D6F",
"< 	c #66A7C6",
"[ 	c #7ED2F3",
"} 	c #76D1F5",
"| 	c #75D1F6",
"1 	c #74D1F5",
"2 	c #7BD3F5",
"3 	c #75BEDE",
"4 	c #356A8B",
"5 	c #316687",
"6 	c #78C5E5",
"7 	c #75D0F5",
"8 	c #7ED3F4",
"9 	c #508FAF",
"0 	c #103E61",
"a 	c #336A8C",
"b 	c #7ACEEF",
"c 	c #7AD2F5",
"d 	c #5B9FBF",
"e 	c #113E61",
"f 	c #285D7F",
"g 	c #77CBED",
"h 	c #5495B5",
"i 	c #18476A",
"j 	c #6FBEE0",
"k 	c #77CFF2",
"l 	c #326A8C",
"m 	c #4C8EAF",
"n 	c #71C3E4",
"o 	c #164668",
"p 	c #1B4B6D",
"q 	c #74CBED",
"r 	c #407E9F",
"s 	c #498AAB",
"t 	c #78D2F5",
"u 	c #A8E1F8",
"v 	c #B9E7F9",
"w 	c #AFE4F9",
"x 	c #7FD4F6",
"y 	c #86D6F6",
"z 	c #B2E5F9",
"A 	c #B8E7FA",
"B 	c #A2E0F8",
"C 	c #77D1F5",
"D 	c #6ABADD",
"E 	c #64B3D5",
"F 	c #85D6F6",
"G 	c #E6F6FC",
"H 	c #FEFEFE",
"I 	c #FFFFFF",
"J 	c #F6FBFD",
"K 	c #95DBF7",
"L 	c #A1DFF8",
"M 	c #F9FCFE",
"N 	c #DCF3FC",
"O 	c #7ED4F6",
"P 	c #2B5F80",
"Q 	c #1A486A",
"R 	c #73CBEE",
"S 	c #DBF2FC",
"T 	c #FCFDFD",
"U 	c #C7D3E3",
"V 	c #B5C5DA",
"W 	c #EDF5F9",
"X 	c #7BD3F6",
"Y 	c #8AD7F7",
"Z 	c #FAFDFE",
"` 	c #F2F5F9",
" .	c #AEBFD7",
"..	c #D1DBE8",
"+.	c #C5EAFA",
"@.	c #4483A5",
"#.	c #2F6181",
"$.	c #74CFF4",
"%.	c #8BD8F7",
"&.	c #FBFDFE",
"*.	c #A3B6D2",
"=.	c #073E87",
"-.	c #7694BC",
";.	c #A7E1F8",
">.	c #B7E7F9",
",.	c #5076AA",
"'.	c #0E438A",
").	c #BFCFE1",
"!.	c #7DD4F6",
"~.	c #569BBD",
"{.	c #3D7292",
"].	c #97DCF8",
"^.	c #FEFFFF",
"/.	c #698AB6",
"(.	c #063E87",
"_.	c #2A5897",
":.	c #ACE3F8",
"<.	c #C7ECFB",
"[.	c #184A8E",
"}.	c #8FA9C9",
"|.	c #5EA8C9",
"1.	c #447998",
"2.	c #BECCDF",
"3.	c #174A8E",
"4.	c #0D438A",
"5.	c #99B0CD",
"6.	c #A2DFF8",
"7.	c #7493BB",
"8.	c #0B4188",
"9.	c #205192",
"0.	c #CFDEEB",
"a.	c #62ADCD",
"b.	c #437A98",
"c.	c #CBEDFB",
"d.	c #E4EAF1",
"e.	c #D9E1EC",
"f.	c #E0F4FC",
"g.	c #F3FAFD",
"h.	c #FCFCFD",
"i.	c #D5DEEA",
"j.	c #E8EDF3",
"k.	c #B3E5F9",
"l.	c #61ACCE",
"m.	c #427997",
"n.	c #FDFEFE",
"o.	c #DEF4FC",
"p.	c #90DAF7",
"q.	c #E5F6FC",
"r.	c #BEE9FA",
"s.	c #79D2F6",
"t.	c #437998",
"u.	c #81D5F6",
"v.	c #A6E1F8",
"w.	c #8AD7F6",
"x.	c #91DAF7",
"y.	c #A3E0F8",
"z.	c #7CD3F5",
"A.	c #61ADCE",
"B.	c #62ADCE",
"C.	c #427897",
"D.	c #437997",
"E.	c #427A99",
"F.	c #427998",
"G.	c #71C9EC",
"H.	c #6EBCDB",
"I.	c #74CEF2",
"J.	c #73CDF0",
"K.	c #6FBBDA",
"L.	c #70C5E7",
"M.	c #73CCF0",
"N.	c #62ACCC",
"O.	c #3F7392",
"P.	c #71BCDB",
"Q.	c #406B87",
"R.	c #264E6C",
"S.	c #568AA5",
"T.	c #74CBEE",
"U.	c #4F7E99",
"V.	c #244C6B",
"W.	c #365F7C",
"X.	c #6DB4D2",
"Y.	c #50809B",
"Z.	c #4E7D97",
"`.	c #72C8EA",
" +	c #61AACB",
".+	c #356583",
"++	c #73CEF3",
"@+	c #6FBDDD",
"#+	c #325C79",
"$+	c #144062",
"%+	c #63A0BC",
"&+	c #74D0F3",
"*+	c #74CFF3",
"=+	c #5B95B1",
"-+	c #103C5F",
";+	c #2C5775",
">+	c #71C1E2",
",+	c #5A90AB",
"'+	c #103D5F",
")+	c #51819C",
"!+	c #74CCF0",
"~+	c #5DA3C3",
"{+	c #1C4868",
"]+	c #71BFDE",
"^+	c #71C0DF",
"/+	c #396480",
"(+	c #1F4A6A",
"_+	c #6CAFCC",
":+	c #6AAECB",
"<+	c #194566",
"[+	c #3F6C88",
"}+	c #72C3E4",
"|+	c #629CB8",
"1+	c #164263",
"2+	c #123F61",
"3+	c #5C94AF",
"4+	c #73CAED",
"5+	c #4E87A6",
"6+	c #2E5977",
"7+	c #2C5774",
"8+	c #1F4969",
"9+	c #3C6783",
"0+	c #214B6B",
"a+	c #2E5876",
"b+	c #174263",
"c+	c #164162",
"d+	c #1B4667",
"                                                                                ",
"                                                                                ",
"                                                                                ",
"                                                                                ",
"                              . + @ # $ % & * = -                               ",
"                        ; > , ' ) ! ~ ~ ~ { ] ^ / ( _                           ",
"                      : < [ } | ~ ~ ~ ~ ~ 1 ~ ~ ~ 2 3 4                         ",
"                    5 6 } | ~ ~ ~ ~ ~ ~ ~ ~ ~ ~ ~ ~ 7 8 9 0                     ",
"                  a b ~ ~ ~ ~ ~ ~ ~ | ~ ~ ~ ~ ~ ~ ~ ~ ~ c d e                   ",
"                f g ~ ~ ~ ~ ~ ~ ~ ~ ~ ~ ~ ~ ~ ~ ~ ~ ~ ~ ~ ] h                   ",
"              i j ~ ~ ~ ~ ~ ~ ~ | ~ ~ ~ ~ ~ ~ ~ ~ ~ ~ ~ | ~ k l                 ",
"              m } ~ ~ ~ ~ ~ ~ ~ ~ | ~ | ~ ~ ~ | ~ ~ ~ ~ ~ ~ ~ n o               ",
"            p q ~ ~ ~ 1 ~ ~ ~ ~ ~ ~ ~ ~ 7 ~ ~ ~ ~ ~ 7 ~ ~ ~ ~ ~ r               ",
"            s | ~ ~ ~ ~ ~ ~ t u v w x ~ | ~ ~ ~ ~ ~ y z A B C ~ D -             ",
"          - E ~ ~ ~ ~ ~ ~ F G H I I J K ~ ~ ~ ~ ~ L M I I H N O { P             ",
"          Q R ~ ~ ~ ~ | } S I I T U V W X ~ ~ ~ Y Z I I `  ...+.~ @.            ",
"          #.$.1 ~ ~ ~ | %.&.I I *.=.=.-.;.~ ~ ~ >.I I H ,.=.'.).!.~.            ",
"          {.7 ~ | ~ ~ ~ ].^.I I /.(.=._.:.| ~ ~ <.I I H [.(.=.}.y |.            ",
"          1.~ ~ ~ ~ ~ | F Z I I 2.3.4.5.6.~ ~ ~ w I I H 7.8.9.0.c a.            ",
"          b.~ ~ 7 ~ ~ ~ ~ c.I I I d.e.f.C ~ ~ ~ x g.I I h.i.j.k.~ l.            ",
"          m.~ ~ ~ ~ ~ ~ ~ 2 c.n.H H o.F ~ ~ ~ ~ ~ p.q.H H &.r.s.~ l.            ",
"          t.~ ~ ~ ~ ~ ~ ~ ~ ~ u.v.w.~ ~ ~ ~ ~ ~ ~ ~ ~ x.y.z.~ ~ ~ A.            ",
"          t.~ ~ ~ ~ ~ ~ ~ ~ ~ ~ ~ ~ ~ ~ ~ ~ ~ ~ ~ ~ | ~ ~ ~ ~ ~ | B.            ",
"          C.~ ~ | ~ ~ ~ ~ ~ 7 | ~ ~ ~ ~ ~ ~ 1 ~ ~ ~ ~ ~ ~ ~ ~ ~ ~ l.            ",
"          D.~ ~ ~ ~ ~ ~ ~ ~ ~ ~ ~ ~ ~ ~ ~ ~ | | ~ ~ ~ ~ ~ ~ ~ ~ ~ A.            ",
"          C.~ ~ ~ ~ ~ ~ ~ ~ ~ ~ ~ ~ ~ ~ ~ ~ ~ ~ ~ ~ ~ ~ ~ ~ ~ ~ ~ A.            ",
"          m.~ ~ ~ ~ | ~ ~ ~ ~ ~ ~ ~ ~ ~ ~ | ~ ~ ~ ~ ~ | ~ 1 ~ 1 ~ A.            ",
"          C.~ ~ ~ ~ ~ ~ ~ ~ ~ ~ 1 ~ ~ | ~ ~ ~ ~ ~ ~ ~ ~ ~ ~ ~ ~ ~ A.            ",
"          D.~ ~ ~ ~ ~ ~ ~ ~ ~ ~ | ~ ~ | ~ ~ ~ ~ ~ ~ ~ ~ ~ ~ ~ ~ ~ A.            ",
"          D.~ ~ ~ ~ ~ ~ ~ ~ ~ ~ ~ ~ | ~ ~ 1 ~ ~ ~ ~ ~ ~ ~ ~ ~ ~ | A.            ",
"          E.~ ~ ~ | ~ | ~ | ~ ~ ~ ~ ~ 1 ~ ~ ~ ~ ~ ~ ~ ~ ~ ~ ~ ~ | A.            ",
"          F.~ ~ ~ | ~ ~ | ~ ~ | ~ ~ 1 ~ 1 ~ ~ ~ ~ ~ ~ ~ ~ ~ | ~ ~ A.            ",
"          t.7 ~ ~ ~ G.H.I.~ ~ ~ ~ 1 J.K.L.~ ~ ~ ~ ~ ~ J.H.M.~ ~ | N.            ",
"          O.{ ~ 7 P.Q.R.S.I.~ ~ ~ T.U.V.W.X.7 ~ | ~ R Y.R.Z.`.~ ~  +            ",
"          .+++~ @+#+    $+%+&+~ *+=+-+    ;+>+~ ~ I.,+'+    )+!+~ ~+            ",
"          {+]+^+/+        (+_+M.:+<+        [+}+R |+1+      2+3+4+5+            ",
"            6+7+            8+9+0+            a+/+b+          c+/+d+            ",
"                                                                                ",
"                                                                                ",
"                                                                                "};
