/* XPM */
static char * enemi_red_xpm[] = {
"40 40 204 2",
"  	c #0E3B5E",
". 	c #0E3A5D",
"+ 	c #17385A",
"@ 	c #55445D",
"# 	c #764E64",
"$ 	c #7F4B5F",
"% 	c #814A5D",
"& 	c #7B4D62",
"* 	c #684B62",
"= 	c #2D3958",
"- 	c #0E3B5D",
"; 	c #3C3B58",
"> 	c #A64252",
", 	c #E2333C",
"' 	c #ED2830",
") 	c #EB1C24",
"! 	c #EB1922",
"~ 	c #EC1922",
"{ 	c #EB1A22",
"] 	c #EC2129",
"^ 	c #EC3037",
"/ 	c #C33B47",
"( 	c #6B3F56",
"_ 	c #153A5C",
": 	c #1D3959",
"< 	c #9A3A4C",
"[ 	c #EB2C33",
"} 	c #EC1B23",
"| 	c #ED1C24",
"1 	c #EC1C24",
"2 	c #EB1E26",
"3 	c #CF3843",
"4 	c #423B57",
"5 	c #2F3655",
"6 	c #CD333D",
"7 	c #EB1D25",
"8 	c #EB272E",
"9 	c #70374D",
"0 	c #2A3857",
"a 	c #D42C37",
"b 	c #EC1B24",
"c 	c #EA232B",
"d 	c #713349",
"e 	c #113A5C",
"f 	c #C12C38",
"g 	c #EB1B23",
"h 	c #EA212A",
"i 	c #483550",
"j 	c #802F43",
"k 	c #D12530",
"l 	c #15395B",
"m 	c #213757",
"n 	c #DE2029",
"o 	c #ED1D25",
"p 	c #742D42",
"q 	c #692E46",
"r 	c #EE2D34",
"s 	c #F68F93",
"t 	c #F8B0B3",
"u 	c #F69094",
"v 	c #ED1F27",
"w 	c #F3797D",
"x 	c #F8AFB1",
"y 	c #F79FA2",
"z 	c #EF4248",
"A 	c #C7222D",
"B 	c #0F3A5D",
"C 	c #B6212E",
"D 	c #EE343C",
"E 	c #FCEBEC",
"F 	c #FEFEFE",
"G 	c #FEFDFD",
"H 	c #FCE8E9",
"I 	c #EE373E",
"J 	c #ED2129",
"K 	c #FAC6C8",
"L 	c #FEFCFC",
"M 	c #F15A60",
"N 	c #EA1D25",
"O 	c #37324F",
"P 	c #17395A",
"Q 	c #E31C24",
"R 	c #F8B0B2",
"S 	c #CAD5E5",
"T 	c #4069A2",
"U 	c #5F80B0",
"V 	c #F3A2A6",
"W 	c #EC1A22",
"X 	c #F36C71",
"Y 	c #FFFFFF",
"Z 	c #EFF2F7",
"` 	c #5277AA",
" .	c #466DA4",
"..	c #D9C9D4",
"+.	c #612D45",
"@.	c #213756",
"#.	c #EA1C24",
"$.	c #EC161E",
"%.	c #FBDBDC",
"&.	c #FDFDFD",
"*.	c #5478AB",
"=.	c #083F87",
"-.	c #063D87",
";.	c #A29CB7",
">.	c #F79CA0",
",.	c #86A0C4",
"'.	c #083F88",
").	c #7493BB",
"!.	c #EC272F",
"~.	c #742A40",
"{.	c #273553",
"].	c #EC1921",
"^.	c #FACBCD",
"/.	c #8BA4C6",
"(.	c #063D86",
"_.	c #0F438A",
":.	c #D6ABB7",
"<.	c #F48589",
"[.	c #FEFEFF",
"}.	c #C3D0E2",
"|.	c #093E87",
"1.	c #063C86",
"2.	c #A8B3CD",
"3.	c #EC1E26",
"4.	c #7F283B",
"5.	c #F2696E",
"6.	c #FCFCFD",
"7.	c #D1DBE8",
"8.	c #E5E9F0",
"9.	c #F3686D",
"0.	c #EF3A41",
"a.	c #FDF3F4",
"b.	c #DFE5EF",
"c.	c #D6DEEA",
"d.	c #F6A1A4",
"e.	c #80273A",
"f.	c #F3767A",
"g.	c #FDEDEE",
"h.	c #F37479",
"i.	c #F15258",
"j.	c #FBD7D9",
"k.	c #FEF9F9",
"l.	c #F69EA1",
"m.	c #81273A",
"n.	c #ED1B23",
"o.	c #ED2027",
"p.	c #EE2F37",
"q.	c #EE2E35",
"r.	c #ED242C",
"s.	c #EC1B22",
"t.	c #283553",
"u.	c #2A3452",
"v.	c #273453",
"w.	c #E71B23",
"x.	c #E91B23",
"y.	c #E51B23",
"z.	c #E81B23",
"A.	c #7D273B",
"B.	c #233554",
"C.	c #AF1F2C",
"D.	c #25314E",
"E.	c #412D46",
"F.	c #DB1B24",
"G.	c #D41C25",
"H.	c #3B2E47",
"I.	c #193453",
"J.	c #952231",
"K.	c #EC1C23",
"L.	c #CE1D26",
"M.	c #322F4A",
"N.	c #382E48",
"O.	c #CE1C26",
"P.	c #7A283C",
"Q.	c #1B3858",
"R.	c #AB1F2D",
"S.	c #153859",
"T.	c #512C44",
"U.	c #EA1B23",
"V.	c #442E47",
"W.	c #12395B",
"X.	c #A3202E",
"Y.	c #E21B23",
"Z.	c #37314C",
"`.	c #2F334F",
" +	c #DA1B24",
".+	c #EB1B24",
"++	c #6F2B40",
"@+	c #9C202E",
"#+	c #A81F2C",
"$+	c #173758",
"%+	c #6B273B",
"&+	c #CF1B24",
"*+	c #71263A",
"=+	c #1C3656",
"-+	c #AB1F2B",
";+	c #C71C25",
">+	c #462E47",
",+	c #492D46",
"'+	c #CB1B24",
")+	c #40304A",
"!+	c #0D3A5D",
"~+	c #0D3A5C",
"{+	c #0D395B",
"]+	c #0D395C",
"                                                                                ",
"                                                                                ",
"                                                                                ",
"                                                                                ",
"                                                                                ",
"                                                                                ",
"                              . + @ # $ % & * =   -                             ",
"                            ; > , ' ) ! ~ { ] ^ / ( _                           ",
"                        : < [ } | | | | | | | | 1 2 3 4                         ",
"                      5 6 7 1 | | | | | | | | | | | } 8 9                       ",
"                    0 a b | | | | | | | | | | | | | | 1 c d                     ",
"                  e f g | | | | | | | | | | | | | | | | 1 h i                   ",
"                  j 7 | | | | | | | | | | | | | | | | | | } k l                 ",
"                m n 1 | | | | } | o | | | | | | | | | o | } 7 p                 ",
"                q ) | | | | 1 r s t u r 1 | | | } v w x y z } A B               ",
"              . C 1 | | | } D E F F G H I | | | J K G F F L M N O               ",
"              P Q 1 | | | } R F F S T U V W | | X G Y Z `  ...g +.              ",
"              @.#.| | | | $.%.Y &.*.=.-.;.W | | >.F F ,.'.'.).!.~.              ",
"              {.g | | | | ].^.F F /.(._.:.].| | <.G [.}.|.1.2.3.4.              ",
"              {.g | | | | | 5.G F 6.7.8.9.1 | | 0.a.F F b.c.d.} e.              ",
"              {.g | | | | | } f.g.F g.h.W | | | 1 i.j.F k.l.J } m.              ",
"              {.g | | | | | | n.o.p.v b | | | | | 1 1 q.r.s.| } m.              ",
"              {.g | | | | | | | | | | | | | | | | | | | | | | } m.              ",
"              {.g | | | | | | | | | | | | | | | | | | | | | | } m.              ",
"              {.g | | | | | | | | | | | | | | | | | | | | | | } m.              ",
"              {.g | | | | | | | | | | | | | | | | | | | | | | } m.              ",
"              {.g | | | | | | | | | | | | | | | | | | | | | | } m.              ",
"              {.g | | | | | | | | | | | | | | | | | | | | | | } m.              ",
"              t.g | | | | | | | | | | | | | | | | | | | | | | } m.              ",
"              u.} | | | | | | | | | | | | | | | | | | | | | | } m.              ",
"              v.g | } } w.x.} | | } } x.y.g b | | 1 } w.z.} } } A.              ",
"              B.g } g C.D.E.F.} | } G.H.I.J.} K.| } L.M.N.O.} g P.              ",
"              Q.y.g R.S.    T.U.} z.V.    W.X.g } Y.Z.    `. +.+++              ",
"              B @+#+$+      . %+&+*+.       =+-+;+>+        ,+'+)+              ",
"                !+~+            {+            . {+            ]+                ",
"                                                                                ",
"                                                                                ",
"                                                                                ",
"                                                                                ",
"                                                                                "};
