/* XPM */
static char * enemi_green_xpm[] = {
"40 40 177 2",
"  	c #0E3B5E",
". 	c #0E3B5D",
"+ 	c #0E3D5D",
"@ 	c #175053",
"# 	c #378347",
"$ 	c #479944",
"% 	c #4AA241",
"& 	c #4DA343",
"* 	c #489C44",
"= 	c #3D8B47",
"- 	c #1D5C4F",
"; 	c #0F3D5D",
"> 	c #0F3E5C",
", 	c #257244",
"' 	c #46B926",
") 	c #4FD01B",
"! 	c #49D115",
"~ 	c #49D114",
"{ 	c #4ED119",
"] 	c #4CC422",
"^ 	c #2C823C",
"/ 	c #124558",
"( 	c #185550",
"_ 	c #3EB422",
": 	c #4AD015",
"< 	c #4AD215",
"[ 	c #49D014",
"} 	c #44C11C",
"| 	c #206947",
"1 	c #1F6748",
"2 	c #47CA18",
"3 	c #4AD115",
"4 	c #49CF15",
"5 	c #2B843A",
"6 	c #1D614A",
"7 	c #48CC16",
"8 	c #2A833A",
"9 	c #144C55",
"0 	c #45C719",
"a 	c #49D015",
"b 	c #1F6648",
"c 	c #37A32A",
"d 	c #42BE1D",
"e 	c #10415A",
"f 	c #1A594E",
"g 	c #48CF15",
"h 	c #277A3E",
"i 	c #329630",
"j 	c #69D93D",
"k 	c #B3EB9C",
"l 	c #D2F3C4",
"m 	c #A7E88D",
"n 	c #5DD62C",
"o 	c #57D526",
"p 	c #A1E786",
"q 	c #D0F3C2",
"r 	c #B7ECA1",
"s 	c #6CDA40",
"t 	c #40BA1E",
"u 	c #0F3D5C",
"v 	c #0E3D5C",
"w 	c #43C21A",
"x 	c #6FDA44",
"y 	c #F7FCF4",
"z 	c #FEFEFE",
"A 	c #FEFDFE",
"B 	c #FDFEFE",
"C 	c #E9F9E2",
"D 	c #5DD62D",
"E 	c #53D320",
"F 	c #E6F8DE",
"G 	c #FDFEFD",
"H 	c #FBFDFB",
"I 	c #7CDE56",
"J 	c #165053",
"K 	c #165052",
"L 	c #D5F4C8",
"M 	c #AEC0D7",
"N 	c #205193",
"O 	c #5379AA",
"P 	c #A4E48E",
"Q 	c #A4E888",
"R 	c #D9E2EC",
"S 	c #2E5B99",
"T 	c #325F9B",
"U 	c #BEDEC2",
"V 	c #46CF12",
"W 	c #226D44",
"X 	c #1C5F4A",
"Y 	c #F6FCF3",
"Z 	c #FFFFFF",
"` 	c #3D68A0",
" .	c #083F88",
"..	c #053C86",
"+.	c #9CC6AE",
"@.	c #48D113",
"#.	c #C2EFAE",
"$.	c #6E8EB8",
"%.	c #083F87",
"&.	c #7797B9",
"*.	c #2A8139",
"=.	c #206946",
"-.	c #E4F8DC",
";.	c #849FC2",
">.	c #093F88",
",.	c #255394",
"'.	c #A9DF9D",
").	c #ADEA94",
"!.	c #BBCADD",
"~.	c #0F438A",
"{.	c #11448B",
"].	c #AECCC4",
"^.	c #46D011",
"/.	c #2E8C34",
"(.	c #87E063",
"_.	c #FEFEFD",
":.	c #EBEFF4",
"<.	c #F7FBF7",
"[.	c #66D838",
"}.	c #F5FCF2",
"|.	c #FDFDFD",
"1.	c #F3F5F9",
"2.	c #F3F6F8",
"3.	c #96E477",
"4.	c #89E166",
"5.	c #E7F8DF",
"6.	c #DCF5D0",
"7.	c #73DC4A",
"8.	c #6EDA44",
"9.	c #D7F4CA",
"0.	c #E9F9E3",
"a.	c #93E372",
"b.	c #206846",
"c.	c #48CD15",
"d.	c #48CE15",
"e.	c #1D6049",
"f.	c #349B2B",
"g.	c #124254",
"h.	c #1F6545",
"i.	c #48CD16",
"j.	c #17504E",
"k.	c #114254",
"l.	c #359E2B",
"m.	c #3EB420",
"n.	c #144950",
"o.	c #1B5A49",
"p.	c #44C419",
"q.	c #2B8637",
"r.	c #185450",
"s.	c #33992C",
"t.	c #24743D",
"u.	c #48CE16",
"v.	c #19564D",
"w.	c #0F3F5A",
"x.	c #3CAF22",
"y.	c #44C31A",
"z.	c #154C52",
"A.	c #1A5A4B",
"B.	c #47CB16",
"C.	c #48D015",
"D.	c #277C3C",
"E.	c #0E3B5C",
"F.	c #39A625",
"G.	c #33972B",
"H.	c #0D3A5D",
"I.	c #2A8036",
"J.	c #42BE19",
"K.	c #226B40",
"L.	c #134854",
"M.	c #3AA823",
"N.	c #3DB21F",
"O.	c #19574C",
"P.	c #206843",
"Q.	c #41BC1A",
"R.	c #175150",
"S.	c #0E3A5D",
"T.	c #0E3A5C",
"                                                                                ",
"                                                                                ",
"                                                                                ",
"                                                                                ",
"                                                                                ",
"                                    .     . .                                   ",
"                              + @ # $ % & * = - ; .                             ",
"                          > , ' ) ! ! ~ ~ ! ! { ] ^ /                           ",
"                        ( _ : ! < < < < < < < < ~ [ } |                         ",
"                    . 1 2 ! < < < < < < < < < < < < 3 4 5 .                     ",
"                    6 7 3 < < < < < < < < < < < < < < ! [ 8 .                   ",
"                  9 0 3 < < < < < < < < < < < < < < < < 3 a b                   ",
"                . c a < < < < < < < < < < < < < < < < < < 3 d e                 ",
"                f g 3 < < < < < < 3 < < < < < < < < ! 3 < 3 ! h                 ",
"              . i ~ < < < < ~ j k l m n < < < < < o p q r s ! t u               ",
"              v w 3 < < < ! x y z A B C D < < < E F G z B H I ! J               ",
"              K ! < < < < ~ L z z M N O P < < < Q z z R S T U V W               ",
"              X 3 < < < < ~ Y Z B `  ...+.< < @.#.z B $.%. .&.a *.              ",
"              =.3 < < < < ~ -.z z ;.>.,.'.< < < ).z z !.~.{.].^./..             ",
"              =.3 < < < < < (._.z z :.<.s ~ < < [.}.z |.1.2.3.[ /..             ",
"              =.3 < < < < < ~ 4.5.}.6.7.~ < < < 3 8.9.}.0.a.3 ~ /..             ",
"              =.3 < < < < < < < ~ ~ ~ < < < < < < 3 ~ ~ @.~ < ~ /..             ",
"              =.3 < < < < < < < < < < < < < < < < < < < < < < ~ /..             ",
"              =.3 < < < < < < < < < < < < < < < < < < < < < < ~ /..             ",
"              =.3 < < < < < < < < < < < < < < < < < < < < < < ~ /..             ",
"              =.3 < < < < < < < < < < < < < < < < < < < < < < ~ /..             ",
"              =.3 < < < < < < < < < < < < < < < < < < < < < < ~ /..             ",
"              =.3 < < < < < < < < < < < < < < < < < < < < < < ~ /..             ",
"              b.3 < < < < < < < < < < < < < < < < < < < < < < ~ /..             ",
"              b.3 < < < < < < < < < < < < < < < < < < < < < < ~ /..             ",
"              b.3 < 3 ~ c.[ 3 < < < ~ g c.! 3 < < < ~ d.a 3 < ~ /..             ",
"              e.3 3 ! f.g.h.i.~ < ~ t j.k.l.! < < ~ m.n.o.p.3 ~ q..             ",
"              r.! a s.u     t.a ~ u.v.    w.x.! ! y.z.    A.B.C.D.              ",
"              E.F.G.H.        I.J.K.        L.M.N.O.      . P.Q.R.              ",
"                H.S.            T.            S.T.            T.                ",
"                                                                                ",
"                                                                                ",
"                                                                                ",
"                                                                                ",
"                                                                                "};
