/* XPM */
static char * door_open_xpm[] = {
"40 40 113 2",
"  	c #0E3B5E",
". 	c #12385A",
"+ 	c #22314D",
"@ 	c #10395C",
"# 	c #12395A",
"$ 	c #3C2439",
"% 	c #901100",
"& 	c #931702",
"* 	c #810E08",
"= 	c #6E4E2F",
"- 	c #611D21",
"; 	c #393844",
"> 	c #342D42",
", 	c #3F2237",
"' 	c #2F2B44",
") 	c #1F3250",
"! 	c #153758",
"~ 	c #11395B",
"{ 	c #63111B",
"] 	c #861308",
"^ 	c #871408",
"/ 	c #860D05",
"( 	c #B53E00",
"_ 	c #EC8400",
": 	c #EB8400",
"< 	c #E37A00",
"[ 	c #E98300",
"} 	c #D66A01",
"| 	c #B84300",
"1 	c #AB3500",
"2 	c #A02700",
"3 	c #931A03",
"4 	c #7B0809",
"5 	c #12395B",
"6 	c #6C0F14",
"7 	c #F38F0F",
"8 	c #FE9A11",
"9 	c #FD9910",
"0 	c #FD9A12",
"a 	c #CF610B",
"b 	c #B53F00",
"c 	c #EC8500",
"d 	c #ED8600",
"e 	c #EF8900",
"f 	c #911100",
"g 	c #143859",
"h 	c #F38B0F",
"i 	c #A62A04",
"j 	c #87110E",
"k 	c #865D55",
"l 	c #865952",
"m 	c #ED8700",
"n 	c #901000",
"o 	c #F38C0F",
"p 	c #991B04",
"q 	c #2A7CEA",
"r 	c #2486FD",
"s 	c #49559D",
"t 	c #B53F01",
"u 	c #297EED",
"v 	c #2486FE",
"w 	c #48559D",
"x 	c #C55400",
"y 	c #9B1D00",
"z 	c #D76B00",
"A 	c #B53E01",
"B 	c #8C0B03",
"C 	c #A66980",
"D 	c #AB3100",
"E 	c #C65500",
"F 	c #9B1E00",
"G 	c #F28C0F",
"H 	c #692622",
"I 	c #F6900F",
"J 	c #672E27",
"K 	c #F8910F",
"L 	c #664936",
"M 	c #FB9610",
"N 	c #6A1316",
"O 	c #F48D0F",
"P 	c #0E3B5D",
"Q 	c #6B1014",
"R 	c #991C04",
"S 	c #2781EF",
"T 	c #2287FD",
"U 	c #48549D",
"V 	c #13385A",
"W 	c #0E3A5D",
"X 	c #481F32",
"Y 	c #700A11",
"Z 	c #790509",
"` 	c #861309",
" .	c #7E0707",
"..	c #741221",
"+.	c #4D4682",
"@.	c #465196",
"#.	c #EB8300",
"$.	c #E87F00",
"%.	c #E17700",
"&.	c #D66900",
"*.	c #C75600",
"=.	c #A02600",
"-.	c #7E0606",
";.	c #710910",
">.	c #581726",
",.	c #0F3A5D",
"'.	c #103C60",
").	c #3A263E",
"!.	c #740E0E",
"~.	c #671017",
"{.	c #5C1420",
"].	c #501B2A",
"^.	c #103A5C",
"                                                                                ",
"                                                                                ",
"                                                                                ",
"                                                                                ",
"                                                                                ",
"                                . + .                                           ",
"                      @ # # # # $ % & * = - ; > , ' ) ! ~                       ",
"                      { ] ^ ^ ^ / ( _ : : < [ } | 1 2 3 4 5                     ",
"                      6 7 8 9 0 a b c d d d c c c _ c e f g                     ",
"                      6 h i j k l b c d d d d d d d d m n g                     ",
"                      6 o p q r s t c d d d d d d d d m n g                     ",
"                      6 o p u v w t c d d d d d d d d m n g                     ",
"                      6 o p u v w t c d d d d d d d d m n g                     ",
"                      6 o p u v w t c d d d d d d d d m n g                     ",
"                      6 o p u v w t c d d d d d d d d m n g                     ",
"                      6 o p u v w t c d d d d d d d d m n g                     ",
"                      6 o p u v w t c d c c d d d d d m n g                     ",
"                      6 o p u v w t x y z c d d d d d m n g                     ",
"                      6 o p u v w A B C D d d d d d d m n g                     ",
"                      6 o p u v w t E F z c d d d d d m n g                     ",
"                      6 G p u v w t c d c c d d d d d m n g                     ",
"                      H I p u v w t c d d d d d d d d m n g                     ",
"                      J K p u v w t c d d d d d d d d m n g                     ",
"                      L M p u v w t c d d d d d d d d m n g                     ",
"                      N O p u v w t c d d d d d d d d m n g                     ",
"                      6 o p u v w t c d d d d d d d d m n g                     ",
"                      6 o p u v w t c d d d d d d d d m n g                     ",
"                      6 o p u v w t c d d d d d d d d m n g                     ",
"                    P Q 7 R S T U t c d d d c c c _ c e f V                     ",
"            W X Y Y Y Z `  ...+.@.t c #.$.%.&.*.| 1 =.3 -.;.Y Y >.              ",
"              ,.5 5 5 5 5 5 5 '.).% & * !.~.{.]., ' ) ! . 5 5 5 ^.              ",
"                                . + .       ,.W                                 ",
"                                                                                ",
"                                                                                ",
"                                                                                ",
"                                                                                ",
"                                                                                ",
"                                                                                ",
"                                                                                ",
"                                                                                "};
