/* XPM */
static char * door_closed_xpm[] = {
"40 40 83 1",
" 	c #0E3B5E",
".	c #133256",
"+	c #172B50",
"@	c #182B51",
"#	c #162D53",
"$	c #373F64",
"%	c #465478",
"&	c #424E72",
"*	c #1C234B",
"=	c #4E6082",
"-	c #6B88A6",
";	c #6782A0",
">	c #6A86A4",
",	c #647D9C",
"'	c #617A99",
")	c #23224A",
"!	c #34355C",
"~	c #34355B",
"{	c #28274F",
"]	c #4A5A7C",
"^	c #647E9C",
"/	c #627A99",
"(	c #44466B",
"_	c #C9DDF3",
":	c #C6DAF0",
"<	c #C6D9F0",
"[	c #656C8E",
"}	c #C7DCF1",
"|	c #C5D9EF",
"1	c #C4D8EE",
"2	c #656C8D",
"3	c #646B8C",
"4	c #C6DBF0",
"5	c #C2D6EC",
"6	c #5F6789",
"7	c #BBCEE5",
"8	c #2F2F56",
"9	c #BDD0E7",
"0	c #586082",
"a	c #ACBDD5",
"b	c #1F1D46",
"c	c #201F48",
"d	c #B2C4DD",
"e	c #C0D4EA",
"f	c #545C7E",
"g	c #9CABC5",
"h	c #9FAFC9",
"i	c #AFC3DB",
"j	c #C7DBF1",
"k	c #C2D6ED",
"l	c #A0B4CE",
"m	c #AEC2DA",
"n	c #9DB1CB",
"o	c #B7CBE3",
"p	c #B8CCE4",
"q	c #9EB2CC",
"r	c #B1C5DD",
"s	c #B5C9E1",
"t	c #A4B8D1",
"u	c #414368",
"v	c #B8CDE4",
"w	c #B1C5DE",
"x	c #A8BCD5",
"y	c #A0B4CD",
"z	c #3B3D63",
"A	c #9FB4CD",
"B	c #545B7E",
"C	c #0E3A5E",
"D	c #133257",
"E	c #162C52",
"F	c #1B244C",
"G	c #414C70",
"H	c #2D2D55",
"I	c #60698B",
"J	c #5F688A",
"K	c #3A3C62",
"L	c #353C62",
"M	c #1E2049",
"N	c #142F55",
"O	c #133156",
"P	c #172B51",
"Q	c #172A50",
"R	c #152E54",
"                                        ",
"                                        ",
"                                        ",
"                                        ",
"                                        ",
"           .+@@@@@@@@@@@@@@@@#          ",
"           @$%%%%%%%%%%%%%%%&*          ",
"           @=-;;;;;;;;;;;;;>,*          ",
"           @=')!~~~~~~~~~~{]^*          ",
"           @=/(_:::::::::<[]^*          ",
"           @=/(}|||||||||12]^*          ",
"           @=/(}|||||||||12]^*          ",
"           @=/(}|||||||||12]^*          ",
"           @=/(}|||||||||12]^*          ",
"           @=/(}|||||||||12]^*          ",
"           @=/(}|||||||||12]^*          ",
"           @=/(}|||||||||12]^*          ",
"           @=/(}|||||||||12]^*          ",
"           @=/(}|||||||||12]^*          ",
"           @=/(}|||||||||13]^*          ",
"           @=/(4551||||||16]^*          ",
"           @=/(78!9||||||10]^*          ",
"           @=/(abcd|||||1ef]^*          ",
"           @=/(}gh1|||||1if]^*          ",
"           @=/(j11|||||1klf]^*          ",
"           @=/(}||||||11mnf]^*          ",
"           @=/(}|||||11onnf]^*          ",
"           @=/(}|||||1pqqnf]^*          ",
"           @=/(}||111rqqqnf]^*          ",
"           @=/(j111stnqqqnf]^*          ",
"           @=/uvwxynqqqqqnf]^*          ",
"           @='zAnnnnnnnnnnB],*          ",
"        CDEF$GHIJJJJJJJJJJKL&MENC       ",
"        COPP+@Q+++++++++++Q@@P@RC       ",
"                                        ",
"                                        ",
"                                        ",
"                                        ",
"                                        ",
"                                        "};
