/* XPM */
static char * player_sho_d_xpm[] = {
"40 40 83 1",
" 	c #0E3B5E",
".	c #133F5D",
"+	c #516858",
"@	c #7E8655",
"#	c #888D54",
"$	c #878C54",
"%	c #788355",
"&	c #5A6E58",
"*	c #19425D",
"=	c #35555A",
"-	c #ABA451",
";	c #EFD34C",
">	c #FDDC4B",
",	c #F3D54B",
"'	c #A39F52",
")	c #2B4F5B",
"!	c #143F5D",
"~	c #9A9952",
"{	c #F9D94B",
"]	c #F7D84B",
"^	c #8F9253",
"/	c #133E5D",
"(	c #254A5C",
"_	c #C8B94F",
":	c #C4B64F",
"<	c #264B5C",
"[	c #1A435D",
"}	c #CFBD4E",
"|	c #CCBB4E",
"1	c #15405D",
"2	c #A8A351",
"3	c #3B595A",
"4	c #FBDB4B",
"5	c #FADA4B",
"6	c #B2AA51",
"7	c #B1A951",
"8	c #18425D",
"9	c #556B58",
"0	c #7D8655",
"a	c #8A8E54",
"b	c #CAB34D",
"c	c #696553",
"d	c #5E5C53",
"e	c #A09150",
"f	c #F5D54B",
"g	c #595853",
"h	c #545454",
"i	c #C0AB4E",
"j	c #E8CB4C",
"k	c #A6964F",
"l	c #E3CA4D",
"m	c #F7D74B",
"n	c #637457",
"o	c #8A8F54",
"p	c #B3AA51",
"q	c #D5BC4D",
"r	c #847B51",
"s	c #7C7451",
"t	c #B5A24F",
"u	c #D3BF4E",
"v	c #103C5D",
"w	c #123D5D",
"x	c #DAC44D",
"y	c #576C58",
"z	c #496359",
"A	c #FCDB4B",
"B	c #36555A",
"C	c #A7A251",
"D	c #C9B84F",
"E	c #A29E52",
"F	c #999853",
"G	c #4B6459",
"H	c #E9CF4C",
"I	c #C9B94F",
"J	c #BFB250",
"K	c #5B6F58",
"L	c #C3B54F",
"M	c #244A5C",
"N	c #415D5A",
"O	c #B9AE50",
"P	c #2F515B",
"Q	c #758056",
"R	c #294D5B",
"                                        ",
"                                        ",
"                                        ",
"                                        ",
"                                        ",
"                                        ",
"                                        ",
"                                        ",
"                .+@#$%&*                ",
"              =-;>>>>>>,')              ",
"            !~{>>>>>>>>>>]^/            ",
"           (_>>>>>>>>>>>>>>:<           ",
"          [}>>>>>>>>>>>>>>>>|1          ",
"          2>>>>>>>>>>>>>>>>>>~          ",
"         34>>>>>>>>>>>>>>>>>>5=         ",
"         6>>>>>>>>>>>>>>>>>>>>7         ",
"        8]>>>>>>>>>>>>>>>>>>>>]8        ",
"        9>>>>>>>>>>>>>>>>>>>>>>9        ",
"        0>>>>>>>>>>>>>>>>>>>>>>0        ",
"        a>>>>>>>>>>>>>>>>>>>>>>a        ",
"        a>>bcde>>>>>>>>>>>>>>>>a        ",
"        0>fghhhi>>>>>>>>>>>>>>>0        ",
"        9>jhhhhk>>>l5>>>>>>>>>>9        ",
"        8]mdhhhb>>>no>>>>>>>>>]8        ",
"         p>qrst>>>uvwx>>>>>>>>7         ",
"         34>>>>>>>y  zA>>>>>>5B         ",
"          C>>>>>>D    E>>>>>>F          ",
"          [}>>>>>G    [H>>>>I1          ",
"           (I>>>J      K>>>LM           ",
"            !~{AN       O]^/            ",
"              PQ        R)              ",
"                                        ",
"                                        ",
"                                        ",
"                                        ",
"                                        ",
"                                        ",
"                                        ",
"                                        ",
"                                        "};
