/* XPM */
static char * player_sho_l_xpm[] = {
"40 40 83 1",
" 	c #0E3B5E",
".	c #18425D",
"+	c #556B58",
"@	c #7D8655",
"#	c #8A8E54",
"$	c #3B595A",
"%	c #B3AA51",
"&	c #F7D84B",
"*	c #FDDC4B",
"=	c #B2AA51",
"-	c #1A435D",
";	c #A7A251",
">	c #FBDB4B",
",	c #F7D74B",
"'	c #E8CB4C",
")	c #F5D54B",
"!	c #A8A351",
"~	c #254A5C",
"{	c #CFBD4E",
"]	c #D5BC4D",
"^	c #5E5C53",
"/	c #545454",
"(	c #595853",
"_	c #CAB34D",
":	c #143F5D",
"<	c #C9B94F",
"[	c #847B51",
"}	c #696553",
"|	c #C8B94F",
"1	c #9A9952",
"2	c #7C7451",
"3	c #2F515B",
"4	c #F9D94B",
"5	c #B5A24F",
"6	c #A09150",
"7	c #35555A",
"8	c #758056",
"9	c #FCDB4B",
"0	c #A6964F",
"a	c #C0AB4E",
"b	c #ABA451",
"c	c #415D5A",
"d	c #BFB250",
"e	c #EFD34C",
"f	c #133F5D",
"g	c #4B6459",
"h	c #C9B84F",
"i	c #516858",
"j	c #576C58",
"k	c #D3BF4E",
"l	c #7E8655",
"m	c #103C5D",
"n	c #637457",
"o	c #E3CA4D",
"p	c #888D54",
"q	c #123D5D",
"r	c #8A8F54",
"s	c #FADA4B",
"t	c #878C54",
"u	c #496359",
"v	c #DAC44D",
"w	c #788355",
"x	c #A29E52",
"y	c #5A6E58",
"z	c #5B6F58",
"A	c #E9CF4C",
"B	c #F3D54B",
"C	c #19425D",
"D	c #294D5B",
"E	c #B9AE50",
"F	c #A39F52",
"G	c #2B4F5B",
"H	c #8F9253",
"I	c #133E5D",
"J	c #C3B54F",
"K	c #C4B64F",
"L	c #244A5C",
"M	c #CCBB4E",
"N	c #264B5C",
"O	c #15405D",
"P	c #999853",
"Q	c #36555A",
"R	c #B1A951",
"                                        ",
"                                        ",
"                                        ",
"                                        ",
"                                        ",
"                                        ",
"                                        ",
"                                        ",
"                .+@##@+.                ",
"              $%&******&=$              ",
"            -;>*,')******>!-            ",
"           ~{**]^/(_*******{~           ",
"          :<***[///}********|:          ",
"          1****2///^*********1          ",
"         34****5///6*********47         ",
"         89*****_0a***********b         ",
"          cd******************ef        ",
"            gh*****************i        ",
"              jk***************l        ",
"               mno*************p        ",
"               qrs*************t        ",
"              uv***************w        ",
"            -x9****************y        ",
"           zA*****************BC        ",
"         DE*******************F         ",
"         G&******************&G         ",
"          H******************H          ",
"          IJ****************KI          ",
"           L<**************MN           ",
"            OPs**********s1O            ",
"              QR&******&R7              ",
"                .+@##@+.                ",
"                                        ",
"                                        ",
"                                        ",
"                                        ",
"                                        ",
"                                        ",
"                                        ",
"                                        "};
