/* XPM */
static char * wallxpm_xpm[] = {
"40 40 159 2",
"  	c #0E3B5E",
". 	c #082135",
"+ 	c #030304",
"@ 	c #060202",
"# 	c #000000",
"$ 	c #030404",
"% 	c #020202",
"& 	c #030100",
"* 	c #251B1C",
"= 	c #75555A",
"- 	c #2F2224",
"; 	c #C15D43",
"> 	c #E26C4F",
", 	c #E36D4F",
"' 	c #E76F50",
") 	c #25110C",
"! 	c #94A0A6",
"~ 	c #5A6265",
"{ 	c #6F3527",
"] 	c #E97051",
"^ 	c #EA7052",
"/ 	c #E97052",
"( 	c #E26D4F",
"_ 	c #95A2A7",
": 	c #23100C",
"< 	c #DF6B4E",
"[ 	c #AC5441",
"} 	c #ED7253",
"| 	c #F17354",
"1 	c #26120D",
"2 	c #9AA7AD",
"3 	c #5E6669",
"4 	c #743728",
"5 	c #9CA9AE",
"6 	c #24110C",
"7 	c #CB634C",
"8 	c #050202",
"9 	c #F17454",
"0 	c #060201",
"a 	c #DC694D",
"b 	c #E56E50",
"c 	c #25110D",
"d 	c #99A7AD",
"e 	c #703527",
"f 	c #E66E50",
"g 	c #9BA9AE",
"h 	c #E26D50",
"i 	c #C5604A",
"j 	c #0B0807",
"k 	c #1A1C1C",
"l 	c #B2C1C8",
"m 	c #889499",
"n 	c #0D0C0C",
"o 	c #B3C2C8",
"p 	c #1A1C1D",
"q 	c #0A0807",
"r 	c #040505",
"s 	c #BACAD1",
"t 	c #BAC9D1",
"u 	c #C0D0D7",
"v 	c #C0D1D8",
"w 	c #C1D1D8",
"x 	c #BDCDD4",
"y 	c #B9C9D0",
"z 	c #B7C7CE",
"A 	c #010101",
"B 	c #3D4244",
"C 	c #3F4547",
"D 	c #50575A",
"E 	c #B5C4CA",
"F 	c #3C4244",
"G 	c #010102",
"H 	c #040101",
"I 	c #944733",
"J 	c #9A4A36",
"K 	c #9B4A36",
"L 	c #321811",
"M 	c #7F8A8F",
"N 	c #984935",
"O 	c #844031",
"P 	c #030101",
"Q 	c #EC7152",
"R 	c #EF7353",
"S 	c #4D251B",
"T 	c #7D878C",
"U 	c #C9624B",
"V 	c #040202",
"W 	c #F07353",
"X 	c #4E251B",
"Y 	c #CA624C",
"Z 	c #F27455",
"` 	c #4F251B",
" .	c #EC7253",
"..	c #CD644D",
"+.	c #020000",
"@.	c #4B231A",
"#.	c #1B0E0B",
"$.	c #8B979C",
"%.	c #422019",
"&.	c #030303",
"*.	c #788286",
"=.	c #7D878B",
"-.	c #778285",
";.	c #020304",
">.	c #93A0A5",
",.	c #BECED5",
"'.	c #BACAD0",
").	c #849094",
"!.	c #94A0A5",
"~.	c #778286",
"{.	c #110A09",
"].	c #A5B4BA",
"^.	c #6D767B",
"/.	c #6D777B",
"(.	c #A7B5BB",
"_.	c #100A09",
":.	c #432019",
"<.	c #F27555",
"[.	c #27120D",
"}.	c #753829",
"|.	c #F07354",
"1.	c #F37555",
"2.	c #EC7153",
"3.	c #CE654D",
"4.	c #050302",
"5.	c #CA634C",
"6.	c #9B4B36",
"7.	c #180C09",
"8.	c #9DAAB0",
"9.	c #61696C",
"0.	c #4B241A",
"a.	c #9EACB1",
"b.	c #180B08",
"c.	c #844131",
"d.	c #030201",
"e.	c #3F4447",
"f.	c #5B6366",
"g.	c #BCCCD3",
"h.	c #A9B8BE",
"i.	c #484E51",
"j.	c #5B6367",
"k.	c #010202",
"l.	c #B9C8CF",
"m.	c #B8C7CE",
"n.	c #B7C7CD",
"o.	c #BAC9D0",
"p.	c #111211",
"q.	c #9FADB2",
"r.	c #9FACB2",
"s.	c #121212",
"t.	c #E86F51",
"u.	c #7C878C",
"v.	c #C46049",
"w.	c #C9624C",
"x.	c #EA7152",
"y.	c #191112",
"z.	c #735357",
"A.	c #302223",
"B.	c #082136",
"                                                                                ",
"                                                                                ",
"    . + @ @ @ @ @ @ # $ % & @ * = - @ @ @ @ @ @ @ @ & % $ # @ @ @ @ @ @ + .     ",
"    + ; > , , , , ' ) ! ~ { , ] ^ / ( , , , , , , , { ~ _ : ' , , , , < [ +     ",
"    @ > } } } } } | 1 2 3 4 } } } } } } } } } } } } 4 3 5 6 | } } } } ^ 7 8     ",
"    @ , } } } } } 9 1 2 3 4 } } } } } } } } } } } } 4 3 5 6 9 } } } } ^ 7 8     ",
"    @ , } } } } } 9 1 2 3 4 } } } } } } } } } } } } 4 3 5 6 9 } } } } ^ 7 8     ",
"    @ , } } } } } 9 1 2 3 4 } } } } } } } } } } } } 4 3 5 6 9 } } } } ^ 7 8     ",
"    0 a b b b b b ] c d 3 e f b b b b b b b b b b f e 3 g : ] b b b b h i 8     ",
"    # j j j j j j j k l m n j j j j j j j j j j j j n m o p j j j j j j q #     ",
"    r o s s s s s t u v w x s s s s y z z y s s s s x w v u t s s s s s l r     ",
"    A B C C C C C C C C C C C C C C D E E D C C C C C C C C C C C C C C F G     ",
"    H I J J J J J J J J J J J J J K L M M L K J J J J J J J J J J J J N O P     ",
"    @ > Q Q Q Q Q Q Q Q Q Q Q Q Q R S T T S R Q Q Q Q Q Q Q Q Q Q Q Q / U V     ",
"    @ , } } } } } } } } } } } } } W X T T X W } } } } } } } } } } } } ^ Y V     ",
"    @ , } } } } } } } } } } } } } W X T T X W } } } } } } } } } } } } ^ Y V     ",
"    @ , } } } } } } } } } } } } } W X T T X W } } } } } } } } } } } } ^ Y V     ",
"    @ f W W W W W W W W W W W W W Z ` T T ` Z W W W W W W W W W W W W  ...V     ",
"    +.@.X X X X X X X X X X X X X ` #.$.$.#.` X X X X X X X X X X X X S %.A     ",
"    &.*.T T T T T T =.T T =.T T T T $.x x $.T T T T =.T T =.T T T T T T -.;.    ",
"    &.*.T T T T T T >.,.'.).T T T T T T T T T T T T ).'.,.!.T T T T T T ~.;.    ",
"    +.@.X X X X X ` {.].^.1 X X X X X X X X X X X X 1 /.(._.` X X X X S :.A     ",
"    @ f W W W W W <.[.2 3 }.|.W W W W W W W W W W |.}.3 5 ) 1.W W W W 2.3.4.    ",
"    @ , } } } } } 9 1 2 3 4 } } } } } } } } } } } } 4 3 5 6 9 } } } } ^ 7 4.    ",
"    @ , } } } } } 9 1 2 3 4 } } } } } } } } } } } } 4 3 5 6 9 } } } } ^ 7 4.    ",
"    @ , } } } } } 9 1 2 3 4 } } } } } } } } } } } } 4 3 5 6 9 } } } } ^ 7 4.    ",
"    @ > Q Q Q Q Q |.1 2 3 4 Q Q Q Q Q Q Q Q Q Q Q Q 4 3 5 6 |.Q Q Q Q / 5.4.    ",
"    H I J J J J J 6.7.8.9.0.J J J J J J J J J J J J 0.9.a.b.6.J J J J N c.d.    ",
"    A B C C C C C e.f.g.h.i.C C C C C C C C C C C C i.h.g.j.e.C C C C C B k.    ",
"    r o s s s s s s l.m.n.o.s s s s ,.v v ,.s s s s o.n.m.l.s s s s s s l r     ",
"    # j j j j j j j j j j j j j j j p.q.r.s.j j j j j j j j j j j j j j q #     ",
"    0 a b b b b b b b b b b b b b t.0.u.u.0.t.b b b b b b b b b b b b ( v.V     ",
"    @ , } } } } } } } } } } } } } W X T T X W } } } } } } } } } } } } / Y V     ",
"    @ , } } } } } } } } } } } } } W X T T X W } } } } } } } } } } } } / Y V     ",
"    @ , } } } } } } } } } } } } } W X T T X W } } } } } } } } } } } } / Y V     ",
"    @ > } } } } } } } } } } } } } W X T T X W } } } } } } } } } } } } / w.V     ",
"    + ; > t.x.] ( , , , , , , , , f @.*.*.@.f , , , , , , , , , , , , < [ ;.    ",
"    . + @ y.z.A.@ @ @ @ @ @ @ @ @ @ +.&.&.+.@ @ @ @ @ @ @ @ @ @ @ @ @ @ + B.    ",
"                                                                                ",
"                                                                                "};
